/* XPM */
static char *polar[] = {
/* columns rows colors chars-per-pixel */
"18 18 19 1 ",
"  c black",
". c #030000",
"X c #090000",
"o c #2C0000",
"O c #380000",
"+ c #3B0000",
"@ c #5A0000",
"# c #5D0000",
"$ c #6D0000",
"% c #9C0000",
"& c #AB0000",
"* c #BC0000",
"= c #C10000",
"- c #CB0000",
"; c #D50000",
": c #D80000",
"> c #F80000",
", c red",
"< c None",
/* pixels */
"<<<<<<<<<<<<<<<<<<",
"<<<<<<     <<<<<<<",
"<<<<  << <<  <<<<<",
"<<<  <<<o<<<  <<<<",
"<<  <<<,:,,,<  <<<",
"<< <<,,< <<,,< <<<",
"< <<<,<<O<<<,<< <<",
"< <<<,<,;,<<<,< <<",
"<   #& *=@-  >X <<",
"< <<<,<<O<,<<,< <<",
"< <<<<,,$,<<<,< <<",
"<< <<<<,%<<<<< <<<",
"<<  <<<< <<<<  <<<",
"<<<  <<< <<<  <<<<",
"<<<<  << <<  <<<<<",
"<<<<<<     <<<<<<<",
"<<<<<<<<<<<<<<<<<<",
"<<<<<<<<<<<<<<<<<<"
};
