/* XPM */
static char * color_xpm[] = {
"18 18 9 1",
" 	c None",
".	c #000000",
"+	c #FFA600",
"@	c #43FF00",
"#	c #00FFFF",
"$	c #F7FF00",
"%	c #0000FC",
"&	c #FF2000",
"*	c #90FF00",
"                  ",
"                  ",
" .                ",
" .          +     ",
" .                ",
" .                ",
" .     @       #  ",
" .           $    ",
" .  %   &         ",
" .    #           ",
" .         @      ",
" . &     *        ",
" .   +        %   ",
" .        $       ",
" .                ",
" ................ ",
"                  ",
"                  "};
