/* XPM */
static char * contour_xpm[] = {
"18 18 5 1",
" 	c None",
".	c #000000",
"+	c #FF0000",
"@	c #FFFF00",
"#	c #008400",
"                  ",
" ................ ",
" .+++++.@@@@@@@@. ",
" .+++++.@@@@@@@@. ",
" .+++++.@@@@@@@@. ",
" .+++++.@@@@@@@@. ",
" .++++.@@@@@@@... ",
" .++..@@@@@@..##. ",
" ....@@@@@..####. ",
" .@@@@@@@@.#####. ",
" .@@@@@@@..#####. ",
" .@@@@@@@.######. ",
" .@@@@@@@.######. ",
" .@@@@@@..######. ",
" .@@@@..########. ",
" .@@...#########. ",
" ................ ",
"                  "};
