/* XPM */
static char * dist_xpm[] = {
"18 18 4 1",
" 	c None",
".	c #000000",
"+	c #FF0000",
"@	c #008400",
"                  ",
"       ......     ",
" .  .  .++.+. .   ",
" .  ....++.+...   ",
" .  .  .++.+. .   ",
" .     ......     ",
" .        .@.     ",
" .      ...@.     ",
" .      .@.@.     ",
" .    ...@.@...   ",
" .    .@.@.@.@.   ",
" .  ...@.@.@.@.   ",
" .  .@.@.@.@.@.   ",
" .  .@.@.@.@.@.   ",
" .  .@.@.@.@.@.   ",
" ................ ",
"                  ",
"                  "};
