/* XPM */
static char const * const column_icon [] = {
/* width height num_colors chars_per_pixel */
"    18   18        9            1",
/* colors */
". c #000000",
"# c #ff0000",
"a c #00ffff",
"b c #008400",
"c c #008484",
"d c #848484",
"e c #c6c6c6",
"f c #ffff00",
"g c None",
/* pixels */
"gggggggggggggggggg",
"gggggggggggggggggg",
"g.gggggggg...ggggg",
"g.gggggggg.b.ggggg",
"g.gggggggg.b.ggggg",
"g.gggggggg.b.ggggg",
"g.gggggggg.b.ggggg",
"g.gggggg...b.ggggg",
"g.gggggg.b.b.ggggg",
"g.gggg...b.b...ggg",
"g.gggg.b.b.b.b.ggg",
"g.gg...b.b.b.b.ggg",
"g.gg.b.b.b.b.b.ggg",
"g.gg.b.b.b.b.b.ggg",
"g.gg.b.b.b.b.b.ggg",
"g................g",
"gggggggggggggggggg",
"gggggggggggggggggg"
};
