/* XPM */
static char * matrix_xpm[] = {
"18 18 8 1",
" 	c None",
".	c #FF0000",
"+	c #FF8C00",
"@	c #FFFF00",
"#	c #00FF00",
"$	c #00FFFF",
"%	c #0000FF",
"&	c #9B009B",
"                  ",
" ....++++@@@@#### ",
" ....++++@@@@#### ",
" ....++++@@@@#### ",
" ....++++@@@@#### ",
" ++++@@@@####$$$$ ",
" ++++@@@@####$$$$ ",
" ++++@@@@####$$$$ ",
" ++++@@@@####$$$$ ",
" @@@@####$$$$%%%% ",
" @@@@####$$$$%%%% ",
" @@@@####$$$$%%%% ",
" @@@@####$$$$%%%% ",
" ####$$$$%%%%&&&& ",
" ####$$$$%%%%&&&& ",
" ####$$$$%%%%&&&& ",
" ####$$$$%%%%&&&& ",
"                  "};
